General

Complete name    : Snabba.Cash.2010.SWE-NOR.SUB.x264.AC3(5.1).Zen_Bud.mkv
Format                           : Matroska
File size                        : 1.40 GiB
Duration                         : 1h 59mn
Overall bit rate                 : 1 685 Kbps
Writing application              : HandBrake 0.9.4

Video

Format                           : AVC
Duration                         : 1h 59mn
Bit rate                         : 1 204 Kbps
Width                            : 720 pixels
Height                           : 438 pixels
Display aspect ratio             : 2.35:1
Stream size                      : 1.00 GiB (71%)
Writing library                  : x264 core 79


Audio

Format                           : AC-3
Duration                         : 1h 59mn
Bit rate                         : 448 Kbps
Channel(s)                       : 6 channels
Channel positions                : Front: L C R, Side: L R, LFE
Sampling rate                    : 48.0 KHz
Stream size                      : 382 MiB (27%)
Language                         : Swedish

Text #1
Language                         : Swedish

Text #2
Language                         : Swedish

Text #3
Language                         : Norwegian

Menu
00:00:00.000                     : Chapter 1
00:09:01.480                     : Chapter 2